<?xml version="1.0" standalone="no"?>
<!DOCTYPE svg PUBLIC "-//W3C//DTD SVG 20010904//EN"
 "http://www.w3.org/TR/2001/REC-SVG-20010904/DTD/svg10.dtd">
<svg version="1.0" xmlns="http://www.w3.org/2000/svg"
 width="2160.000000pt" height="2880.000000pt" viewBox="0 0 2160.000000 2880.000000"
 preserveAspectRatio="xMidYMid meet">

<g transform="translate(0.000000,2880.000000) scale(0.100000,-0.100000)"
fill="#000000" stroke="none">
<path d="M0 14400 l0 -14400 10800 0 10800 0 0 14400 0 14400 -10800 0 -10800
0 0 -14400z m6995 7960 c617 -41 1223 -225 1624 -495 208 -139 584 -434 620
-484 31 -43 28 -101 -6 -136 -28 -27 -28 -28 -128 -21 -55 4 -147 9 -205 11
l-105 5 106 -20 c459 -84 676 -200 870 -465 106 -145 243 -471 319 -760 34
-129 61 -275 89 -475 35 -253 43 -333 45 -422 1 -99 -16 -136 -73 -152 -44
-13 -80 6 -169 88 -87 80 -126 105 -245 157 -166 74 -431 139 -705 176 -155
20 -685 23 -917 4 -564 -45 -891 -117 -1210 -269 -294 -139 -505 -291 -771
-557 -247 -246 -371 -404 -460 -588 -43 -88 -100 -254 -91 -263 2 -2 18 28 35
68 90 214 240 424 462 648 85 86 191 184 235 220 405 323 1058 567 1745 652
63 8 214 13 380 13 613 -1 1050 -91 1374 -283 247 -147 376 -353 376 -602 0
-105 -35 -264 -85 -392 -53 -134 -270 -565 -348 -690 -111 -180 -283 -432
-317 -466 -53 -54 -113 -53 -154 1 -18 25 -20 40 -17 209 l2 183 -30 62 c-91
190 -247 345 -450 447 -259 131 -577 196 -951 196 -458 -1 -732 -72 -1022
-267 -316 -213 -497 -449 -498 -649 0 -143 114 -318 265 -405 62 -36 76 -37
36 -4 -73 62 -108 205 -77 322 39 156 168 268 381 332 137 42 405 44 590 6
447 -93 687 -362 689 -775 1 -306 -122 -501 -399 -635 -172 -83 -448 -166
-675 -201 -145 -23 -611 -26 -760 -6 -630 89 -1206 354 -1724 795 -455 387
-819 933 -1009 1512 -124 377 -164 646 -153 1035 10 329 37 517 122 835 132
492 388 996 689 1354 139 165 372 381 565 523 346 253 876 482 1326 572 298
59 518 75 809 56z m5673 -310 c48 -29 57 -60 43 -156 -21 -149 -12 -217 45
-345 65 -147 138 -247 247 -341 310 -263 388 -350 494 -553 39 -75 42 -78 51
-55 5 14 19 52 31 85 110 297 382 590 697 748 201 101 438 177 553 177 58 0
65 -2 97 -34 25 -25 34 -42 34 -68 -1 -46 -17 -71 -78 -116 -92 -69 -120 -120
-128 -230 -7 -88 -4 -94 106 -266 211 -332 270 -609 185 -866 -30 -90 -73
-159 -149 -239 l-51 -54 60 41 c158 109 292 261 379 431 42 82 64 115 86 126
42 22 74 19 108 -10 35 -29 47 -73 62 -220 9 -101 42 -280 62 -345 6 -19 43
-118 84 -220 40 -102 90 -248 110 -325 34 -132 37 -150 41 -335 4 -181 3 -202
-20 -288 l-23 -93 25 7 c14 3 71 14 126 23 l100 17 38 54 c62 88 183 294 254
434 66 131 68 145 22 146 -32 0 -108 59 -134 105 -51 87 -44 221 15 289 31 34
114 81 162 91 25 5 26 7 16 36 -30 87 19 194 110 239 48 23 51 27 51 64 1 21
10 53 21 72 21 34 90 74 127 74 16 0 20 5 16 19 -7 28 14 85 41 110 33 31 96
38 135 15 50 -30 76 -107 51 -154 -8 -15 -4 -22 24 -39 76 -47 88 -160 24
-228 -12 -13 -17 -23 -11 -23 19 0 63 -79 69 -124 11 -76 -33 -163 -99 -197
l-38 -20 30 -25 c70 -59 95 -199 50 -290 -24 -50 -77 -100 -128 -121 -52 -22
-143 -19 -193 6 -23 11 -43 19 -44 18 -1 -1 -16 -35 -33 -75 -57 -131 -157
-335 -210 -431 -29 -51 -49 -97 -44 -101 17 -17 282 -100 380 -120 121 -24
247 -26 339 -4 61 14 72 14 109 0 41 -16 75 -57 75 -93 0 -29 -30 -76 -98
-152 -91 -100 -141 -169 -296 -404 -183 -277 -300 -401 -466 -494 -58 -33
-165 -77 -214 -88 l-30 -6 35 -27 c130 -100 248 -244 310 -378 118 -256 120
-519 4 -823 -52 -136 -62 -189 -79 -417 -14 -189 -25 -222 -84 -250 -40 -19
-82 -12 -110 19 -11 12 -36 55 -57 96 -89 179 -229 269 -613 394 -95 32 -205
73 -245 93 -187 94 -349 232 -442 376 -28 43 -53 78 -56 78 -3 0 -12 -19 -19
-42 -42 -143 -171 -319 -295 -404 -151 -105 -355 -167 -600 -184 -82 -6 -172
-15 -198 -20 -80 -16 -156 -60 -201 -114 -87 -105 -111 -126 -149 -126 -96 0
-137 108 -186 500 -39 300 -27 596 30 763 46 131 122 260 203 337 19 19 36 37
36 40 0 4 -27 12 -60 18 -80 17 -205 71 -293 128 -97 62 -249 218 -326 334
-131 196 -268 519 -322 759 l-23 101 -76 0 c-111 0 -326 35 -429 69 -455 153
-709 521 -689 1001 5 128 24 176 80 203 54 27 96 10 151 -58 80 -102 108 -101
291 9 160 95 298 151 404 163 l72 8 -29 36 c-120 145 -229 416 -247 619 -6 64
-7 66 -46 88 -45 24 -58 22 -58 -12 0 -44 -62 -129 -120 -163 -46 -28 -63 -33
-120 -33 -110 0 -183 46 -234 148 -14 27 -22 32 -52 32 -72 0 -141 49 -175
125 -14 31 -27 44 -56 54 -68 24 -113 81 -113 143 0 33 -1 33 -39 30 -127 -12
-195 149 -102 242 33 33 80 40 149 23 24 -7 32 -5 32 5 1 19 32 53 71 77 45
28 122 28 166 1 l33 -20 36 25 c70 47 148 46 216 -4 l41 -30 35 30 c76 67 186
87 268 50 50 -23 121 -84 130 -113 5 -15 19 14 55 113 118 326 364 738 484
810 39 24 72 24 113 -1z m-7758 -6618 c144 -44 252 -111 329 -203 96 -115 140
-242 142 -414 1 -98 2 -92 49 227 31 220 52 335 63 352 24 36 86 53 137 37 51
-15 79 -53 167 -225 74 -146 250 -466 262 -479 5 -5 73 108 151 250 200 361
242 427 285 447 69 33 144 -3 164 -80 11 -44 131 -1053 131 -1103 0 -22 -9
-41 -28 -60 -25 -25 -36 -28 -125 -34 -110 -7 -154 4 -181 45 -10 16 -23 99
-39 271 -14 136 -26 250 -29 252 -2 3 -56 -98 -119 -223 -138 -275 -151 -296
-196 -317 -48 -23 -103 -7 -137 38 -13 18 -77 140 -142 272 -65 132 -119 233
-121 225 -1 -8 -12 -120 -23 -248 -12 -128 -26 -245 -32 -258 -18 -40 -58 -54
-147 -54 -71 0 -83 3 -110 26 -17 14 -33 39 -36 57 -3 18 6 110 20 205 29 203
30 227 6 152 -56 -175 -173 -311 -336 -390 -121 -58 -209 -74 -379 -67 -157 6
-212 19 -321 75 -84 43 -197 152 -242 232 -150 269 -107 616 102 825 100 100
191 145 380 189 11 3 81 3 155 1 99 -2 152 -8 200 -23z m5145 18 c230 -33 417
-160 504 -343 52 -110 65 -171 65 -302 -2 -404 -293 -680 -714 -679 -131 1
-228 22 -340 76 -158 76 -283 233 -324 408 -9 36 -16 78 -16 93 l0 29 -31 -26
c-30 -26 -33 -26 -188 -26 l-158 0 -6 -107 c-4 -58 -7 -164 -7 -235 0 -129 0
-130 -28 -158 -33 -33 -108 -47 -197 -35 -67 8 -93 28 -105 80 -5 22 -10 284
-10 583 0 596 -1 585 60 617 23 12 70 15 242 14 117 -1 260 -4 316 -8 98 -6
105 -8 128 -34 46 -53 28 -201 -28 -236 -17 -11 -63 -13 -200 -12 l-178 2 0
-38 c0 -21 3 -62 6 -90 l7 -53 144 0 c151 0 201 -10 221 -47 12 -21 13 -19 32
61 24 106 108 240 192 309 92 75 234 143 338 160 50 8 206 6 275 -3z m-6657
-43 c27 -27 27 -28 30 -188 l3 -160 172 177 c96 98 186 183 204 191 37 15 160
18 196 4 43 -16 67 -51 67 -95 0 -39 -7 -47 -226 -267 l-226 -227 153 -177
c201 -232 308 -365 315 -392 16 -59 -33 -118 -104 -129 -25 -4 -83 -4 -130 -1
-100 6 -70 -20 -282 238 l-135 164 -5 -166 c-6 -186 -13 -209 -76 -229 -22 -8
-69 -11 -119 -8 -91 5 -129 22 -146 65 -6 16 -8 242 -7 598 l3 573 24 26 c30
32 45 35 164 32 91 -2 99 -3 125 -29z m3681 27 c17 -4 42 -18 56 -32 l25 -25
0 -586 c0 -642 2 -615 -59 -641 -19 -7 -65 -11 -125 -8 -89 3 -98 5 -123 31
l-28 27 -3 573 c-2 530 -1 575 15 607 12 24 29 39 53 47 38 13 139 17 189 7z
m374 -6 c49 -15 93 -58 412 -402 l240 -260 5 306 c5 304 5 307 28 331 29 31
76 40 149 31 36 -4 64 -15 84 -31 l29 -25 0 -588 0 -589 -23 -27 c-31 -35
-114 -46 -163 -19 -17 9 -160 159 -317 334 -157 174 -294 325 -306 335 l-21
19 0 -316 0 -317 -29 -32 c-28 -32 -32 -33 -109 -33 -84 0 -118 12 -142 48
-21 31 -28 1112 -8 1173 21 64 86 87 171 62z m-2971 -6903 c80 -28 138 -103
138 -180 l0 -35 -84 0 -83 0 -6 28 c-9 46 -72 66 -115 36 -51 -36 -19 -69 98
-99 165 -43 226 -122 202 -262 -21 -126 -88 -183 -223 -191 -179 -10 -273 54
-294 201 l-7 47 91 0 c88 0 91 -1 91 -23 0 -45 23 -62 85 -62 58 0 75 11 75
48 0 20 -34 37 -136 66 -119 34 -176 88 -190 178 -18 119 44 220 156 254 44
13 155 10 202 -6z m1576 -20 c60 -32 96 -75 126 -149 30 -74 30 -278 0 -352
-48 -119 -127 -175 -255 -182 -185 -11 -292 84 -320 282 -27 198 43 362 177
416 75 31 201 24 272 -15z m4304 20 c80 -28 138 -103 138 -180 l0 -35 -84 0
-83 0 -6 28 c-9 46 -72 66 -115 36 -51 -36 -19 -69 98 -99 165 -43 226 -122
202 -262 -21 -126 -88 -183 -223 -191 -179 -10 -273 54 -294 201 l-7 47 91 0
c85 0 91 -1 91 -21 0 -35 19 -58 54 -65 69 -12 115 13 101 56 -6 20 -26 28
-131 59 -119 35 -176 89 -190 178 -18 119 44 220 156 254 44 13 155 10 202 -6z
m4936 -20 c60 -32 96 -75 126 -149 17 -42 20 -73 20 -176 0 -103 -3 -134 -20
-176 -48 -119 -127 -175 -255 -182 -185 -11 -292 84 -320 282 -27 198 43 362
177 416 75 31 201 24 272 -15z m-13003 -2 c22 -11 52 -34 67 -50 111 -116 111
-430 0 -546 -60 -63 -90 -72 -279 -75 l-173 -4 0 352 0 352 173 -4 c153 -3
176 -5 212 -25z m435 -323 l0 -350 -90 0 -90 0 0 350 0 350 90 0 90 0 0 -350z
m392 184 l113 -166 3 166 2 166 85 0 85 0 0 -350 0 -350 -83 0 -82 0 -110 161
-110 160 -3 -160 -2 -161 -85 0 -85 0 0 350 0 350 79 0 80 0 113 -166z m845
-159 c51 -176 95 -332 98 -347 l7 -28 -95 0 -95 0 -12 50 -12 51 -96 -3 -96
-3 -11 -45 -11 -45 -92 -3 c-51 -1 -92 1 -92 5 0 6 183 646 195 681 4 9 31 12
112 10 l107 -3 93 -320z m1203 178 l0 -148 97 148 97 147 114 0 113 0 -87
-127 c-48 -71 -93 -135 -101 -144 -12 -14 -1 -42 87 -218 55 -111 100 -204
100 -207 0 -2 -48 -3 -107 -2 l-106 3 -55 123 -56 123 -48 -48 -48 -47 0 -78
0 -78 -90 0 -90 0 0 350 0 350 90 0 90 0 0 -147z m1424 -43 c22 -105 41 -188
44 -186 2 3 19 78 38 168 19 90 36 173 39 186 5 21 9 22 130 22 l125 0 0 -350
0 -350 -90 0 -90 0 -1 203 -1 202 -29 -130 c-16 -71 -36 -163 -45 -202 l-16
-73 -72 0 -73 0 -46 203 -45 202 5 -202 6 -203 -86 0 -87 0 0 350 0 350 128 0
127 0 39 -190z m658 -44 c3 -219 4 -236 24 -262 27 -37 67 -50 105 -34 55 23
59 45 59 300 l0 230 96 0 96 0 -4 -252 c-5 -282 -12 -318 -72 -380 -49 -50
-100 -71 -187 -76 -101 -6 -167 16 -225 73 -67 67 -74 104 -74 392 l0 243 89
0 90 0 3 -234z m760 67 l113 -167 3 167 2 167 85 0 85 0 0 -350 0 -350 -82 0
-83 0 -110 160 -110 159 -3 -159 -2 -160 -85 0 -85 0 0 350 0 350 79 0 80 0
113 -167z m588 -183 l0 -350 -90 0 -90 0 0 350 0 350 90 0 90 0 0 -350z m300
203 l1 -148 96 148 96 147 114 0 114 0 -87 -127 c-48 -71 -93 -135 -101 -144
-12 -15 -2 -41 86 -218 56 -110 101 -203 101 -206 0 -3 -48 -4 -107 -3 l-106
3 -55 123 -56 123 -48 -48 -48 -47 0 -78 0 -78 -90 0 -90 0 0 350 0 350 90 0
90 0 0 -147z m961 -193 c54 -184 98 -341 99 -347 0 -10 -25 -13 -94 -13 -103
0 -97 -4 -111 68 l-7 33 -96 -3 -97 -3 -9 -47 -9 -48 -95 0 -94 0 7 28 c6 27
182 635 190 660 4 9 31 12 112 10 l107 -3 97 -335z m939 -10 l0 -350 -90 0
-90 0 0 350 0 350 90 0 90 0 0 -350z m775 323 c84 -45 128 -119 145 -247 19
-134 -14 -282 -78 -349 -60 -63 -90 -72 -279 -75 l-173 -4 0 352 0 352 173 -4
c153 -3 176 -5 212 -25z m666 -313 c54 -184 98 -341 99 -347 0 -10 -25 -13
-94 -13 l-94 0 -12 50 -12 51 -96 -3 -96 -3 -11 -45 -11 -45 -93 -3 -93 -3 7
28 c7 29 182 638 190 661 4 9 31 12 112 10 l107 -3 97 -335z m431 174 l113
-166 3 166 2 166 85 0 85 0 0 -350 0 -350 -82 0 -83 0 -110 160 -110 159 -3
-159 -2 -160 -85 0 -85 0 0 350 0 350 79 0 80 0 113 -166z m858 -184 l0 -350
-90 0 -90 0 0 350 0 350 90 0 90 0 0 -350z m402 183 l113 -167 3 167 2 167 85
0 85 0 0 -350 0 -350 -82 0 -83 0 -110 160 -110 159 -3 -159 -2 -160 -85 0
-85 0 0 350 0 350 79 0 80 0 113 -167z m848 82 l0 -85 -135 0 -135 0 0 -60 0
-60 115 0 115 0 0 -80 0 -80 -115 0 -115 0 0 -125 0 -125 -90 0 -90 0 0 350 0
350 225 0 225 0 0 -85z m1674 -107 c22 -103 41 -186 44 -184 2 3 19 78 38 168
19 90 36 173 39 186 5 21 9 22 130 22 l125 0 0 -350 0 -350 -90 0 -90 0 -1
203 -1 202 -29 -130 c-16 -71 -36 -163 -45 -202 l-16 -73 -72 0 -73 0 -46 203
-45 202 5 -202 6 -203 -86 0 -87 0 0 350 0 351 128 -3 127 -3 39 -187z m937
-148 c54 -184 98 -341 99 -347 0 -10 -25 -13 -94 -13 l-94 0 -12 50 -12 51
-96 -3 -96 -3 -11 -45 -11 -45 -92 -3 c-51 -1 -92 1 -92 5 0 6 183 646 195
681 4 9 31 12 112 10 l107 -3 97 -335z m614 250 l0 -85 -92 -3 -93 -3 0 -259
0 -260 -90 0 -90 0 0 260 0 260 -90 0 -90 0 0 90 0 90 273 -2 272 -3 0 -85z
m265 -260 l0 -350 -90 0 -90 0 0 350 0 350 90 0 90 0 0 -350z m310 203 l1
-148 96 148 96 147 114 0 114 0 -87 -127 c-48 -71 -93 -135 -101 -144 -12 -15
-2 -41 86 -218 56 -110 101 -203 101 -206 0 -3 -48 -4 -107 -3 l-106 3 -55
123 -56 123 -48 -48 -48 -47 0 -78 0 -78 -90 0 -90 0 0 350 0 350 90 0 90 0 0
-147z m947 -178 c51 -176 95 -332 98 -347 l7 -28 -95 0 -95 0 -12 50 -12 51
-96 -3 -96 -3 -11 -45 -11 -45 -92 -3 c-51 -1 -92 1 -92 5 0 6 184 648 195
681 4 9 31 12 112 10 l107 -3 93 -320z m-3549 289 c112 -66 124 -259 21 -354
l-32 -29 56 -134 c32 -74 57 -140 57 -146 0 -7 -33 -11 -98 -11 l-99 0 -49
128 c-48 124 -50 127 -82 130 l-32 3 0 -130 0 -131 -90 0 -90 0 0 350 0 350
197 0 c193 0 197 0 241 -26z m-7689 -1385 c19 -11 42 -30 52 -42 65 -78 65
-276 0 -354 -40 -48 -81 -63 -173 -63 l-88 0 0 -115 0 -115 -90 0 -90 0 0 355
0 355 178 0 c161 0 180 -2 211 -21z m5159 -14 c60 -32 96 -75 126 -149 17 -42
20 -73 20 -176 0 -103 -3 -134 -20 -176 -30 -74 -66 -117 -126 -150 -49 -27
-61 -29 -153 -29 -84 0 -107 4 -140 22 -89 48 -138 128 -155 257 -20 139 14
282 83 354 61 64 114 82 227 79 72 -3 93 -7 138 -32z m1308 20 c94 -28 168
-117 176 -210 l3 -40 -85 -3 -85 -2 -16 39 c-14 32 -24 42 -58 52 -55 16 -107
-3 -136 -51 -28 -48 -29 -208 -2 -258 35 -65 131 -79 183 -27 41 41 32 54 -38
57 l-63 3 -3 68 -3 67 156 0 155 0 0 -195 0 -195 -49 0 c-46 0 -50 2 -60 30
l-10 30 -37 -25 c-47 -32 -95 -45 -165 -45 -156 0 -246 94 -270 281 -26 206
48 374 185 423 54 19 160 20 222 1z m-9256 -142 l0 -148 97 148 97 147 114 0
113 0 -87 -127 c-48 -71 -93 -135 -101 -144 -12 -15 -2 -41 86 -218 56 -110
101 -203 101 -206 0 -3 -48 -4 -107 -3 l-106 3 -55 123 -56 123 -48 -48 -48
-47 0 -78 0 -78 -90 0 -90 0 0 350 0 350 90 0 90 0 0 -147z m961 -193 c54
-184 98 -341 98 -347 1 -10 -24 -13 -93 -13 -103 0 -97 -4 -111 68 l-7 33 -96
-3 -96 -3 -11 -45 -11 -45 -93 -3 -93 -3 7 28 c7 29 182 638 190 661 4 9 31
12 112 10 l107 -3 97 -335z m605 321 c53 -32 79 -86 78 -161 -1 -73 -20 -120
-60 -146 l-25 -17 31 -19 c72 -43 92 -184 38 -266 -44 -66 -67 -72 -302 -72
l-206 0 0 350 0 350 208 0 c185 0 210 -2 238 -19z m346 -215 c3 -220 4 -236
24 -263 29 -38 64 -50 104 -33 56 23 60 44 60 300 l0 230 95 0 95 0 0 -219 c0
-286 -13 -353 -82 -420 -55 -54 -93 -66 -203 -66 -91 0 -104 2 -147 28 -26 15
-59 43 -74 62 -48 63 -54 107 -54 372 l0 243 89 0 90 0 3 -234z m1469 -106
c54 -184 98 -341 99 -347 0 -10 -25 -13 -94 -13 -103 0 -97 -4 -111 68 l-7 33
-96 -3 -96 -3 -11 -45 -11 -45 -93 -3 -93 -3 6 28 c7 27 182 634 191 661 4 9
31 12 112 10 l107 -3 97 -335z m619 250 l0 -90 -95 0 -95 0 0 -260 0 -260 -90
0 -90 0 0 260 0 260 -90 0 -90 0 0 90 0 90 275 0 275 0 0 -90z m550 5 l0 -85
-150 0 -150 0 0 -50 0 -50 130 0 130 0 0 -80 0 -80 -130 0 -130 0 0 -50 0 -50
155 0 155 0 0 -85 0 -85 -245 0 -245 0 0 350 0 350 240 0 240 0 0 -85z m382
-82 l113 -166 3 166 2 167 85 0 85 0 0 -350 0 -350 -82 0 -83 0 -110 160 -110
160 -3 -160 -2 -160 -85 0 -85 0 0 350 0 350 79 0 80 0 113 -167z m848 -93 l0
-260 145 0 145 0 0 -90 0 -90 -235 0 -235 0 0 350 0 350 90 0 90 0 0 -260z
m821 -80 c54 -184 98 -341 99 -347 0 -10 -25 -13 -94 -13 -103 0 -97 -4 -111
68 l-7 33 -96 -3 -96 -3 -11 -45 -11 -45 -92 -3 c-51 -1 -92 1 -92 6 0 7 182
640 195 680 4 9 31 12 112 10 l107 -3 97 -335z m443 150 c21 -105 41 -188 43
-186 3 3 20 78 39 168 19 90 36 173 39 186 5 21 9 22 130 22 l125 0 0 -350 0
-350 -90 0 -90 0 -1 203 -1 202 -29 -130 c-16 -71 -36 -163 -45 -202 l-16 -73
-72 0 -73 0 -45 203 -46 202 6 -202 5 -203 -86 0 -87 0 0 350 0 350 128 0 127
0 39 -190z m1428 23 l113 -166 3 166 2 167 85 0 85 0 0 -350 0 -350 -82 0 -83
0 -110 160 -110 160 -3 -160 -2 -160 -85 0 -85 0 0 350 0 350 79 0 80 0 113
-167z m1529 -173 c54 -184 98 -341 98 -347 1 -10 -24 -13 -93 -13 -103 0 -97
-4 -111 68 l-7 33 -96 -3 -96 -3 -11 -45 -11 -45 -93 -3 -93 -3 7 28 c7 29
182 638 190 661 4 9 31 12 112 10 l107 -3 97 -335z m441 173 l113 -166 3 166
2 167 85 0 85 0 0 -350 0 -350 -83 0 -82 0 -110 161 -110 160 -3 -160 -2 -161
-85 0 -85 0 0 350 0 350 79 0 80 0 113 -167z"/>
<path d="M6555 22264 c-485 -51 -1019 -230 -1437 -481 -272 -163 -590 -441
-792 -693 -475 -591 -774 -1502 -742 -2255 29 -648 278 -1300 706 -1845 105
-133 362 -390 505 -504 648 -516 1370 -761 2115 -716 207 13 401 51 620 123
356 117 490 224 551 442 44 154 24 367 -47 506 -126 249 -408 382 -814 382
-170 0 -270 -18 -375 -68 -142 -66 -209 -156 -210 -280 0 -100 28 -156 98
-189 29 -14 66 -28 82 -32 28 -7 26 -4 -27 47 -42 40 -58 64 -63 92 -15 82 67
175 188 213 79 25 226 29 331 9 178 -33 274 -112 326 -265 19 -55 21 -82 18
-170 -3 -94 -7 -112 -37 -175 -80 -166 -323 -339 -553 -394 -144 -35 -273 -44
-538 -38 -255 6 -329 15 -516 62 -375 94 -835 369 -1093 652 -330 364 -491
785 -491 1285 0 512 150 1052 421 1514 229 391 622 817 1010 1095 219 157 591
357 874 469 349 139 802 262 1105 300 215 27 806 22 1206 -11 72 -6 141 -9
154 -7 18 2 -4 24 -116 114 -412 328 -630 466 -914 577 -396 154 -828 237
-1270 242 -129 2 -253 1 -275 -1z"/>
<path d="M7885 21250 c-159 -9 -266 -28 -500 -85 -398 -98 -676 -200 -1035
-380 -369 -185 -639 -376 -917 -650 -521 -514 -814 -1060 -934 -1740 -26 -144
-38 -554 -21 -681 13 -92 52 -267 59 -261 2 3 -3 34 -11 69 -41 177 -47 593
-12 818 60 383 185 707 388 1010 402 600 1104 1168 1868 1510 546 245 1053
372 1560 389 l205 8 -260 0 c-143 0 -318 -3 -390 -7z"/>
<path d="M8668 21243 c17 -2 47 -2 65 0 17 2 3 4 -33 4 -36 0 -50 -2 -32 -4z"/>
<path d="M8160 21143 c-555 -61 -1020 -204 -1550 -474 -685 -350 -1260 -836
-1622 -1373 -254 -376 -391 -842 -391 -1336 -1 -571 171 -989 559 -1360 201
-192 383 -314 616 -414 360 -153 680 -187 1113 -120 271 43 460 162 549 347
119 248 21 463 -254 552 -166 54 -374 -21 -405 -147 -5 -20 0 -33 23 -59 l30
-34 -5 48 c-6 55 9 79 66 103 139 58 316 -74 315 -237 -1 -148 -149 -292 -364
-355 -98 -29 -369 -26 -498 4 -386 92 -643 281 -776 574 -102 224 -140 524
-100 795 45 307 195 561 549 931 231 241 477 429 745 570 335 176 650 258
1210 314 306 30 870 33 1085 5 285 -38 525 -98 711 -177 135 -58 197 -97 288
-181 l69 -64 -7 80 c-24 273 -85 676 -128 835 -46 175 -143 440 -204 563 -88
174 -224 334 -346 405 -169 100 -396 166 -688 202 -78 9 -511 12 -590 3z"/>
<path d="M12575 21934 c-81 -87 -233 -331 -307 -493 -64 -139 -66 -144 -97
-232 -71 -205 -88 -280 -117 -521 -3 -26 -8 -49 -12 -52 -4 -2 -25 4 -47 15
-51 25 -299 120 -395 152 -74 24 -160 44 -150 34 3 -3 75 -33 160 -67 172 -68
236 -96 355 -155 l80 -40 7 -70 c22 -204 52 -315 127 -459 46 -88 47 -90 102
-161 74 -96 207 -217 325 -295 187 -125 222 -160 158 -160 -35 0 -98 40 -174
110 -115 107 -224 143 -386 129 -127 -12 -290 -80 -463 -194 -48 -32 -82 -47
-125 -53 -102 -16 -170 12 -227 94 -16 24 -34 42 -40 39 -13 -8 -11 -244 2
-324 39 -236 164 -432 359 -560 126 -83 259 -132 451 -166 96 -17 433 -21 520
-6 30 6 95 15 144 21 77 10 219 35 465 81 76 15 113 22 280 58 80 17 165 31
190 31 60 0 160 -24 204 -50 56 -31 60 -28 53 46 -25 269 136 577 467 891 56
52 139 125 186 161 115 90 211 191 243 256 82 168 87 319 16 531 -40 117 -84
201 -187 357 -77 117 -85 133 -92 195 -12 98 2 200 36 263 33 60 92 123 143
151 l36 20 -58 -6 c-140 -13 -381 -102 -558 -205 -148 -87 -313 -232 -414
-365 -75 -99 -161 -267 -187 -365 -40 -153 -48 -205 -53 -365 -8 -232 -28
-302 -74 -261 -30 27 -44 126 -33 231 18 163 -20 329 -108 480 -97 163 -203
279 -411 445 -209 167 -335 374 -379 621 -9 53 -9 79 3 136 8 39 18 76 21 81
15 24 -16 21 -39 -4z m-6 -379 c31 -153 114 -330 196 -422 31 -34 93 -88 138
-120 197 -137 306 -244 403 -392 94 -144 144 -342 144 -566 0 -89 19 -136 64
-157 62 -28 85 17 107 205 10 84 21 163 24 177 4 14 11 45 17 70 23 98 84 260
132 352 142 271 383 506 669 654 106 55 205 94 236 94 10 0 6 -10 -16 -32 -65
-70 -93 -150 -93 -264 0 -111 21 -187 70 -254 189 -260 264 -504 216 -700 -57
-233 -156 -366 -421 -572 -278 -216 -436 -442 -475 -680 -12 -77 -13 -180 -1
-231 11 -48 1 -54 -52 -29 -164 77 -224 77 -547 2 -200 -46 -297 -66 -485 -98
-129 -21 -580 -24 -665 -4 -30 7 -83 20 -118 28 -190 45 -368 147 -500 286
-119 126 -198 282 -238 471 -20 99 -14 109 40 59 52 -48 84 -65 151 -82 49
-12 53 -12 130 24 195 91 362 147 507 171 89 15 112 16 168 5 78 -16 121 -33
175 -70 99 -67 189 -93 245 -70 56 23 42 44 -128 198 -171 155 -320 363 -391
547 -13 33 -27 69 -31 80 -5 11 -18 52 -28 90 -48 170 -47 191 5 165 157 -79
494 -298 677 -442 66 -51 187 -158 269 -238 202 -196 330 -356 502 -630 26
-41 135 -267 135 -280 0 -5 12 -18 26 -29 20 -16 31 -18 45 -10 15 8 19 21 19
64 0 31 -4 63 -9 73 -5 9 -26 51 -47 92 -196 394 -579 810 -1034 1122 -123 84
-342 219 -417 256 -21 10 -70 35 -109 55 -39 20 -76 37 -82 37 -29 0 -35 44
-28 213 3 93 11 188 16 211 26 116 43 185 56 226 8 25 19 61 25 80 49 158 202
469 268 544 15 17 16 11 22 -100 3 -66 11 -146 18 -179z"/>
<path d="M12441 21448 c-107 -253 -171 -521 -171 -719 l0 -85 83 -44 c372
-196 701 -423 939 -649 l98 -93 -21 47 c-15 34 -23 83 -30 178 -11 161 -33
282 -64 358 -60 148 -207 315 -407 462 -169 124 -238 204 -313 362 -24 50 -51
119 -61 155 -9 36 -20 69 -24 73 -4 4 -17 -16 -29 -45z"/>
<path d="M14380 21176 c-284 -189 -470 -425 -574 -730 -37 -106 -62 -225 -81
-381 -28 -232 -90 -302 -239 -271 l-40 8 59 -64 c133 -143 310 -385 386 -529
l32 -60 41 78 c84 161 214 314 384 450 287 230 368 332 412 515 24 99 25 161
5 248 -25 106 -75 217 -146 321 -109 161 -131 224 -133 376 -1 57 -3 103 -6
103 -3 -1 -48 -29 -100 -64z"/>
<path d="M12345 20269 c20 -65 72 -177 117 -251 72 -119 144 -206 294 -353 72
-71 139 -142 149 -157 23 -37 22 -114 -2 -146 -42 -56 -68 -67 -162 -67 -94 0
-74 -7 -277 98 -101 52 -141 59 -244 41 -117 -20 -254 -64 -417 -133 -154 -65
-191 -74 -245 -62 l-37 9 15 -37 c26 -61 103 -178 157 -237 121 -133 301 -226
539 -279 66 -14 118 -16 355 -12 l278 4 240 51 c132 28 289 62 350 76 60 14
142 29 182 32 l72 7 -50 98 c-74 149 -181 321 -277 449 -95 125 -335 373 -477
491 -159 133 -393 302 -519 374 l-48 28 7 -24z"/>
<path d="M11743 21149 c-39 -11 -91 -72 -99 -115 -4 -21 1 -47 14 -78 59 -132
253 -108 277 34 8 48 -22 119 -60 144 -31 20 -92 28 -132 15z"/>
<path d="M11395 21114 c-17 -8 -36 -22 -42 -31 -40 -53 13 -147 82 -147 30 0
44 7 66 32 38 42 38 82 2 121 -35 36 -70 45 -108 25z"/>
<path d="M11132 21098 c-30 -30 -3 -98 39 -98 24 0 59 34 59 58 0 41 -69 69
-98 40z"/>
<path d="M10886 21014 c-27 -27 -19 -62 19 -81 34 -18 96 18 65 37 -10 6 -9 9
4 11 15 4 15 6 1 27 -19 26 -66 30 -89 6z"/>
<path d="M11113 20878 c-44 -21 -35 -92 13 -104 22 -6 32 -2 51 20 29 34 29
41 -2 71 -27 28 -30 28 -62 13z"/>
<path d="M11941 20806 c-9 -10 -8 -15 4 -20 10 -4 15 1 15 14 0 24 -4 25 -19
6z"/>
<path d="M11304 20780 c-29 -12 -64 -58 -64 -86 0 -58 40 -94 103 -94 67 1
106 68 76 133 -17 38 -77 62 -115 47z"/>
<path d="M11530 20688 c-80 -55 -92 -160 -27 -225 29 -30 44 -37 88 -41 91 -9
159 50 159 139 0 116 -128 189 -220 127z"/>
<path d="M16812 20234 c-15 -10 -22 -25 -22 -49 0 -39 29 -65 72 -65 57 0 91
76 50 113 -23 21 -71 22 -100 1z"/>
<path d="M15401 20207 c-47 -107 -66 -143 -119 -213 -111 -149 -274 -287 -482
-410 -221 -131 -275 -169 -377 -271 -90 -90 -107 -113 -153 -205 -68 -139 -90
-256 -71 -392 15 -102 46 -203 97 -314 47 -102 186 -307 288 -427 85 -99 120
-165 99 -186 -28 -28 -135 69 -234 212 -211 303 -278 373 -424 443 -124 60
-182 71 -355 70 -190 -1 -232 -10 -610 -125 -186 -56 -342 -65 -433 -25 -30
13 -58 29 -61 35 -4 6 -13 11 -20 11 -44 0 104 -459 217 -670 156 -292 353
-477 592 -558 207 -70 460 -34 735 103 311 156 317 159 388 180 59 18 86 19
101 1 35 -42 -224 -171 -514 -256 -345 -100 -496 -180 -615 -322 -65 -78 -124
-194 -152 -298 -17 -65 -37 -254 -38 -353 0 -192 40 -486 95 -687 l12 -45 19
35 c29 53 123 142 179 169 67 33 109 41 258 51 233 16 379 47 513 111 341 162
457 445 438 1073 -4 131 -2 239 4 285 11 79 26 107 42 81 11 -17 11 -281 1
-430 -7 -109 2 -244 23 -323 71 -274 270 -502 551 -631 89 -42 219 -86 295
-101 19 -4 69 -21 110 -37 259 -100 427 -238 489 -401 19 -50 29 -28 35 81 15
240 35 342 105 514 83 206 83 469 0 671 -84 204 -271 384 -520 501 -155 72
-347 134 -519 165 -36 7 -84 17 -107 22 -23 5 -52 9 -63 9 -33 0 -84 27 -135
72 -50 44 -55 62 -24 79 42 22 144 -5 299 -78 298 -141 433 -183 608 -191 142
-5 213 6 317 51 197 86 326 216 516 517 123 196 200 301 288 393 35 37 62 70
59 73 -4 3 -23 1 -45 -5 -57 -16 -296 -14 -378 4 -116 24 -182 43 -278 81
-142 55 -190 72 -219 79 -16 3 -28 10 -28 15 0 5 24 48 54 97 113 187 247 466
341 713 90 235 167 497 120 406 -8 -15 -15 -33 -15 -39 0 -10 -103 -279 -137
-357 -8 -19 -19 -44 -23 -55 -5 -11 -38 -82 -75 -157 -96 -198 -210 -391 -319
-540 l-48 -66 -82 -7 c-155 -12 -284 -60 -406 -148 -75 -55 -90 -59 -58 -16
25 34 29 39 75 119 91 159 135 421 102 619 -30 184 -92 387 -166 551 -44 97
-60 143 -81 235 -33 147 -41 194 -53 320 -6 66 -12 121 -13 122 -1 1 -8 -12
-15 -30z m-2 -596 c12 -35 44 -111 72 -168 62 -128 84 -198 104 -332 19 -129
19 -229 1 -346 -50 -315 -204 -549 -487 -737 -169 -112 -205 -153 -218 -247
-5 -39 -11 -47 -46 -66 -56 -32 -85 -79 -85 -136 0 -29 5 -49 13 -52 6 -2 60
-2 120 1 l107 5 0 -41 c0 -67 50 -106 240 -190 25 -11 65 -29 90 -40 25 -11
86 -36 135 -57 50 -20 109 -45 132 -56 23 -10 44 -19 47 -19 16 0 251 -119
320 -162 208 -129 332 -289 387 -498 32 -125 30 -348 -4 -515 -32 -151 -65
-276 -79 -293 -9 -10 -24 1 -72 50 -123 128 -232 187 -441 238 -52 12 -95 26
-130 40 -11 5 -47 18 -80 30 -81 29 -193 92 -274 153 -98 76 -117 94 -175 172
-98 129 -142 231 -172 393 -17 95 -17 101 2 448 5 99 4 115 -14 151 -27 51
-71 72 -109 52 -32 -17 -63 -58 -98 -127 -40 -80 -53 -143 -65 -312 -22 -323
-50 -453 -131 -614 -85 -168 -212 -298 -376 -384 -75 -40 -292 -101 -358 -102
-59 0 -192 -37 -242 -66 -24 -13 -53 -38 -65 -54 -38 -52 -46 -45 -69 65 -18
83 -18 420 0 505 28 136 96 299 169 406 54 79 189 208 279 267 88 57 236 127
323 151 172 49 273 96 379 178 119 93 151 171 90 222 -38 32 -60 32 -179 0
-96 -25 -111 -29 -210 -59 -212 -63 -279 -80 -411 -99 -352 -52 -647 42 -863
275 -79 85 -127 151 -191 266 -82 147 -177 385 -149 371 102 -49 137 -62 195
-71 109 -17 268 7 484 73 339 102 666 43 962 -176 93 -69 256 -225 325 -311
68 -86 111 -95 144 -30 14 26 15 39 5 83 -14 63 -46 161 -96 299 -116 317
-155 479 -155 641 0 172 52 325 158 463 73 95 153 163 336 286 171 114 272
209 331 310 l39 68 17 -119 c9 -65 27 -148 38 -183z m901 -1352 c47 -6 148
-24 225 -40 188 -39 262 -49 378 -49 53 0 97 -3 97 -8 0 -40 -162 -252 -302
-393 -195 -198 -404 -329 -615 -385 -130 -35 -401 -20 -493 27 -35 18 -273
115 -374 152 -27 10 -27 11 -10 24 10 7 34 18 54 23 46 13 218 100 289 147
147 97 311 247 429 391 116 143 103 134 175 127 34 -3 100 -11 147 -16z m-366
2 c12 -19 -196 -194 -344 -289 -99 -65 -246 -134 -273 -130 -17 3 -7 19 57 98
152 188 280 275 461 315 75 16 92 17 99 6z m-501 -133 c-53 -68 -108 -146
-147 -209 -43 -72 -87 -117 -130 -132 -34 -13 -161 -37 -193 -37 -74 0 -40 78
68 153 30 21 106 64 169 96 63 33 140 77 170 100 55 40 81 52 63 29z"/>
<path d="M15256 19611 c-22 -24 -125 -102 -281 -212 -209 -147 -305 -262 -362
-434 -57 -173 -30 -352 113 -758 46 -131 84 -245 84 -254 0 -10 18 1 53 33 28
27 104 86 167 131 275 193 394 379 438 679 14 97 14 129 4 235 -16 157 -30
212 -92 345 -28 59 -62 140 -76 180 -15 41 -28 74 -29 74 -1 0 -10 -9 -19 -19z"/>
<path d="M13505 18209 c-38 -5 -151 -29 -250 -54 -229 -56 -281 -65 -377 -65
-43 0 -78 -3 -78 -6 0 -4 21 -48 46 -98 131 -259 299 -412 549 -497 63 -22 86
-24 235 -23 198 0 257 11 569 100 215 62 338 87 371 77 27 -9 -303 312 -380
370 -208 155 -460 227 -685 196z"/>
<path d="M15016 17180 c-19 -278 -19 -352 2 -453 40 -191 143 -351 305 -473
94 -70 263 -147 447 -204 182 -55 253 -87 350 -154 36 -25 68 -42 72 -38 17
17 49 252 49 362 1 230 -47 371 -174 507 -109 116 -253 198 -647 367 -124 53
-264 115 -311 139 l-87 42 -6 -95z"/>
<path d="M14442 17120 c-51 -27 -150 -68 -220 -91 -429 -143 -638 -355 -727
-736 -29 -123 -39 -371 -16 -395 4 -5 31 1 61 11 30 11 121 31 201 45 166 30
243 53 326 98 163 88 261 194 339 365 63 139 84 244 105 533 6 85 14 170 19
188 5 17 8 32 7 31 -1 0 -44 -22 -95 -49z"/>
<path d="M16100 18123 c-40 -62 -308 -324 -400 -392 -47 -35 -118 -82 -157
-105 -40 -22 -73 -43 -73 -46 0 -7 191 -81 252 -96 29 -8 102 -14 165 -14 92
0 126 4 193 25 210 67 333 147 525 339 78 77 156 160 173 183 l32 41 -57 7
c-32 3 -148 24 -257 46 -110 23 -238 43 -285 46 l-86 5 -25 -39z"/>
<path d="M16700 20040 c-23 -23 -25 -39 -7 -64 12 -17 17 -17 43 -5 35 17 44
57 18 76 -24 17 -30 17 -54 -7z"/>
<path d="M16880 20005 c-13 -34 6 -75 35 -75 28 0 45 18 45 50 0 52 -62 72
-80 25z"/>
<path d="M16544 19826 c-37 -37 -42 -62 -20 -105 14 -26 53 -51 81 -51 46 0
95 51 95 101 0 31 -62 89 -95 89 -17 0 -39 -12 -61 -34z"/>
<path d="M16841 19786 c-79 -44 -59 -158 30 -172 50 -8 99 33 99 83 0 45 -14
69 -50 88 -35 18 -48 18 -79 1z"/>
<path d="M16359 19540 c-61 -32 -87 -117 -54 -179 27 -53 71 -81 127 -81 48 0
54 3 95 45 38 41 43 50 43 93 -1 57 -14 83 -60 117 -41 31 -99 33 -151 5z"/>
<path d="M16744 19436 c-138 -62 -96 -266 55 -268 138 -2 193 181 77 257 -35
23 -95 28 -132 11z"/>
<path d="M14103 18551 c-11 -18 -10 -22 8 -32 27 -14 30 -10 16 24 -12 27 -12
27 -24 8z"/>
<path d="M4578 15359 c-186 -25 -351 -137 -429 -291 -84 -166 -78 -417 12
-575 41 -71 149 -170 224 -204 173 -78 422 -77 580 3 213 107 315 277 315 523
0 220 -89 378 -268 473 -113 61 -294 90 -434 71z m243 -65 c74 -22 129 -56
182 -113 87 -93 121 -196 121 -366 -1 -167 -48 -294 -152 -407 -190 -205 -544
-152 -671 100 -77 153 -76 397 3 564 31 65 100 147 152 179 92 57 254 76 365
43z"/>
<path d="M4577 15186 c-94 -34 -160 -104 -200 -214 -17 -47 -21 -82 -21 -197
-1 -133 0 -143 27 -200 33 -70 74 -116 137 -153 38 -23 59 -27 142 -30 91 -4
102 -2 154 23 91 45 169 161 194 293 15 76 8 218 -14 280 -33 92 -105 166
-193 198 -49 17 -177 17 -226 0z"/>
<path d="M5575 15328 c-2 -7 -11 -71 -20 -143 -28 -219 -110 -794 -130 -907
-4 -28 -4 -28 49 -28 l53 0 7 46 c3 26 6 70 6 98 0 49 66 666 72 672 4 4 80
-140 252 -481 83 -165 155 -306 160 -313 5 -9 47 66 125 220 127 254 301 571
308 564 7 -7 39 -295 58 -516 8 -102 18 -209 21 -237 l6 -53 75 0 75 0 -6 33
c-14 82 -49 360 -81 652 -19 176 -37 339 -40 363 -11 74 -32 56 -115 -96 -174
-320 -372 -678 -379 -685 -13 -13 -194 307 -366 646 -66 129 -95 177 -108 177
-10 0 -19 -6 -22 -12z"/>
<path d="M5372 14675 c0 -16 2 -22 5 -12 2 9 2 23 0 30 -3 6 -5 -1 -5 -18z"/>
<path d="M9817 15359 c-234 -31 -415 -187 -472 -406 -19 -74 -19 -239 0 -322
22 -90 70 -176 138 -243 216 -214 651 -209 870 8 109 108 156 220 164 389 6
123 -7 194 -53 292 -35 72 -130 168 -211 211 -115 61 -294 90 -436 71z m244
-65 c68 -20 112 -46 167 -98 94 -89 134 -205 134 -381 0 -168 -46 -292 -152
-408 -188 -205 -554 -147 -674 107 -54 115 -69 303 -35 444 41 168 156 298
297 337 67 19 198 18 263 -1z"/>
<path d="M9782 15169 c-124 -62 -192 -201 -192 -394 0 -175 60 -298 172 -356
49 -25 144 -38 213 -28 179 24 299 227 282 475 -11 151 -72 253 -181 305 -52
25 -73 29 -147 29 -76 0 -93 -4 -147 -31z"/>
<path d="M8600 14795 l0 -545 70 0 70 0 0 270 0 270 195 0 195 0 0 39 0 38
-192 -1 -193 -1 0 200 0 200 135 -2 c74 -2 169 -5 210 -8 l75 -6 1 46 1 45
-284 0 -283 0 0 -545z"/>
<path d="M3190 14795 l0 -545 70 0 70 0 0 280 c0 158 4 280 9 280 11 0 326
-366 413 -480 l61 -80 89 0 c69 0 87 3 82 13 -13 21 -145 179 -223 267 -193
216 -281 319 -281 328 0 5 107 112 238 237 130 125 239 232 240 236 2 5 -23 9
-55 9 l-58 -1 -190 -197 c-205 -212 -299 -302 -315 -302 -6 0 -10 89 -10 250
l0 250 -70 0 -70 0 0 -545z"/>
<path d="M6920 14795 l0 -545 70 0 70 0 0 544 0 545 -70 0 -70 0 0 -544z"/>
<path d="M7380 14795 l0 -545 40 0 40 0 0 424 c0 249 4 427 9 431 5 3 94 -88
197 -202 342 -378 459 -507 523 -580 45 -52 71 -73 87 -73 l24 0 0 546 0 545
-42 -3 -43 -3 -3 -407 c-1 -225 -6 -408 -11 -408 -4 0 -178 185 -386 410 -328
355 -382 410 -407 410 l-28 0 0 -545z"/>
<path d="M5861 8358 c-41 -21 -64 -73 -69 -152 -7 -120 27 -199 93 -212 43 -8
83 11 112 55 20 29 23 47 23 128 0 97 -10 132 -48 166 -26 24 -81 31 -111 15z"/>
<path d="M15101 8358 c-41 -21 -64 -73 -69 -152 -5 -83 9 -145 42 -183 20 -23
32 -28 70 -28 38 0 51 5 78 33 32 32 33 35 36 133 4 108 -4 143 -42 178 -29
27 -83 36 -115 19z"/>
<path d="M2090 8180 l0 -180 35 0 c56 0 100 23 116 61 8 21 14 68 14 119 0 51
-6 98 -14 119 -16 38 -60 61 -116 61 l-35 0 0 -180z"/>
<path d="M3752 8285 c-24 -90 -42 -164 -42 -179 0 -13 11 -16 55 -16 52 0 55
1 50 23 -3 12 -16 65 -29 117 l-23 95 -11 -40z"/>
<path d="M9642 8285 c-24 -90 -42 -164 -42 -179 0 -13 11 -16 55 -16 52 0 55
1 50 23 -3 12 -16 65 -29 117 l-23 95 -11 -40z"/>
<path d="M11370 8180 l0 -180 35 0 c56 0 100 23 116 61 8 21 14 68 14 119 0
51 -6 98 -14 119 -16 38 -60 61 -116 61 l-35 0 0 -180z"/>
<path d="M12022 8285 c-24 -90 -42 -164 -42 -179 0 -13 11 -16 55 -16 52 0 55
1 50 23 -3 12 -16 65 -29 117 l-23 95 -11 -40z"/>
<path d="M17172 8285 c-17 -60 -42 -168 -42 -182 0 -9 18 -13 55 -13 52 0 55
1 50 23 -3 12 -16 65 -29 117 l-23 95 -11 -40z"/>
<path d="M19297 8224 c-15 -61 -27 -116 -27 -122 0 -8 19 -12 55 -12 52 0 55
1 50 23 -3 12 -16 67 -29 122 l-23 100 -26 -111z"/>
<path d="M15720 8300 l0 -60 64 0 c73 0 96 14 96 60 0 46 -23 60 -96 60 l-64
0 0 -60z"/>
<path d="M8080 6885 l0 -75 43 0 c62 0 82 18 82 75 0 57 -20 75 -82 75 l-43 0
0 -75z"/>
<path d="M13248 6945 c-40 -22 -61 -70 -66 -150 -7 -119 27 -198 93 -211 43
-8 83 11 112 55 20 29 23 47 23 123 0 94 -13 140 -47 171 -28 25 -82 30 -115
12z"/>
<path d="M6242 6875 c-17 -62 -42 -169 -42 -182 0 -9 18 -13 55 -13 l55 0 -7
32 c-3 18 -16 71 -28 118 l-22 85 -11 -40z"/>
<path d="M6800 6905 l0 -65 64 0 c75 0 96 14 96 65 0 51 -21 65 -96 65 l-64 0
0 -65z"/>
<path d="M6800 6640 l0 -60 73 0 c83 0 97 8 97 60 0 52 -14 60 -97 60 l-73 0
0 -60z"/>
<path d="M8662 6875 c-26 -96 -42 -164 -42 -179 0 -13 11 -16 55 -16 l55 0 -7
32 c-3 18 -16 71 -28 118 l-22 85 -11 -40z"/>
<path d="M11887 6900 c-10 -28 -47 -189 -47 -205 0 -12 12 -15 55 -15 l55 0
-7 32 c-18 89 -51 201 -56 188z"/>
<path d="M15282 6875 c-17 -62 -42 -169 -42 -182 0 -9 18 -13 55 -13 l55 0 -7
32 c-3 18 -16 71 -28 118 l-22 85 -11 -40z"/>
</g>
</svg>
