<svg width="18" height="18" viewBox="0 0 18 18" fill="none" xmlns="http://www.w3.org/2000/svg">
<g clip-path="url(#clip0_3983_539)">
<path fill-rule="evenodd" clip-rule="evenodd" d="M0.666504 1.49935C0.666504 1.03911 1.0396 0.666016 1.49984 0.666016H16.4998C16.9601 0.666016 17.3332 1.03911 17.3332 1.49935V3.65417C17.3332 4.0962 17.1576 4.52012 16.845 4.83268L11.4998 10.1779V14.8327C11.4998 15.1483 11.3215 15.4369 11.0392 15.578L7.70585 17.2447C7.44753 17.3739 7.14074 17.3601 6.89506 17.2082C6.64938 17.0564 6.49984 16.7882 6.49984 16.4994V10.1779L1.15466 4.83268C0.842098 4.52012 0.666504 4.0962 0.666504 3.65417V1.49935ZM2.33317 2.33268V3.65417L7.92243 9.24343C8.07871 9.39971 8.1665 9.61167 8.1665 9.83268V15.151L9.83317 14.3177V9.83268C9.83317 9.61167 9.92097 9.39971 10.0772 9.24343L15.6665 3.65417V2.33268H2.33317Z" fill="#8A8A8A"/>
</g>
<defs>
<clipPath id="clip0_3983_539">
<rect width="16.6667" height="16.6667" fill="white" transform="translate(0.666504 0.666016)"/>
</clipPath>
</defs>
</svg>
