<svg width="20" height="20" viewBox="0 0 20 20" fill="none" xmlns="http://www.w3.org/2000/svg">
<path d="M7 3C7 1.34315 8.34315 0 10 0C11.6569 0 13 1.34315 13 3C13 4.65685 11.6569 6 10 6C8.34315 6 7 4.65685 7 3Z" fill="#3C3C3C"/>
<path d="M5 10C5 8.34315 6.34315 7 8 7H12C13.6569 7 15 8.34315 15 10V13.4338C15 13.7851 14.8157 14.1106 14.5145 14.2913L12.5 15.5V19C12.5 19.5523 12.0523 20 11.5 20H8.5C7.94772 20 7.5 19.5523 7.5 19V15.5L5.4855 14.2913C5.1843 14.1106 5 13.7851 5 13.4338V10Z" fill="#3C3C3C"/>
</svg>
