<svg width="20" height="20" viewBox="0 0 20 20" fill="none" xmlns="http://www.w3.org/2000/svg">
<path d="M14 4C14 6.20914 12.2091 8 10 8C7.79087 8 6.00001 6.20914 6.00001 4C6.00001 1.79086 7.79087 0 10 0C12.2091 0 14 1.79086 14 4Z" fill="#3C3C3C"/>
<path d="M3.8909 7.99011C4.44865 7.37757 5.39736 7.33314 6.0099 7.89089C7.13843 8.91846 8.52338 9.5 10 9.5C11.4766 9.5 12.8616 8.91846 13.9901 7.89089C14.6027 7.33314 15.5514 7.37757 16.1091 7.99011C16.6669 8.60265 16.6224 9.55136 16.0099 10.1091C15.2459 10.8047 14.3788 11.3753 13.4351 11.7843L14.6022 17.9113C14.8087 18.9955 13.9775 20 12.8738 20C12.0664 20 11.3626 19.4505 11.1668 18.6673L10.6213 16.4851C10.55 16.2 10.2939 16 10 16C9.70616 16 9.45001 16.2 9.37874 16.4851L8.8332 18.6673C8.63738 19.4505 7.93362 20 7.12626 20C6.02252 20 5.19133 18.9955 5.39786 17.9113L6.5649 11.7843C5.6212 11.3753 4.75407 10.8047 3.99012 10.1091C3.37758 9.55136 3.33315 8.60265 3.8909 7.99011Z" fill="#3C3C3C"/>
</svg>
