<svg width="20" height="20" viewBox="0 0 20 20" fill="none" xmlns="http://www.w3.org/2000/svg">
<path d="M7.00006 3C7.00006 1.34315 8.3432 0 10.0001 0C11.6569 0 13.0001 1.34315 13.0001 3C13.0001 4.65685 11.6569 6 10.0001 6C8.3432 6 7.00006 4.65685 7.00006 3Z" fill="#3C3C3C"/>
<path d="M8.66234 7H11.3378C12.6291 7 13.7755 7.82629 14.1838 9.05132L16.0613 14.6838C16.2772 15.3313 15.7952 16 15.1126 16H13.0001L12.1894 19.2425C12.0781 19.6877 11.6782 20 11.2193 20H8.78084C8.32197 20 7.92199 19.6877 7.81069 19.2425L7.00006 16H4.88749C4.20493 16 3.72296 15.3313 3.9388 14.6838L5.81629 9.05132C6.22463 7.82629 7.37105 7 8.66234 7Z" fill="#3C3C3C"/>
</svg>
