<svg width="20" height="20" viewBox="0 0 20 20" fill="none" xmlns="http://www.w3.org/2000/svg">
<g clip-path="url(#clip0_139_5578)">
<path fill-rule="evenodd" clip-rule="evenodd" d="M5.24392 1.91107C5.56935 1.58563 6.09699 1.58563 6.42243 1.91107L9.75576 5.2444C10.0812 5.56984 10.0812 6.09748 9.75576 6.42291C9.43032 6.74835 8.90269 6.74835 8.57725 6.42291L6.6665 4.51217V15.8337C6.6665 16.2939 6.29341 16.667 5.83317 16.667C5.37293 16.667 4.99984 16.2939 4.99984 15.8337V4.51217L3.08909 6.42291C2.76366 6.74835 2.23602 6.74835 1.91058 6.42291C1.58514 6.09748 1.58514 5.56984 1.91058 5.2444L5.24392 1.91107ZM14.1665 3.33366C14.6267 3.33366 14.9998 3.70675 14.9998 4.16699L14.9998 15.4885L16.9106 13.5777C17.236 13.2523 17.7637 13.2523 18.0891 13.5777C18.4145 13.9032 18.4145 14.4308 18.0891 14.7562L14.7558 18.0896C14.5995 18.2459 14.3875 18.3337 14.1665 18.3337C13.9455 18.3337 13.7335 18.2459 13.5772 18.0896L10.2439 14.7562C9.91848 14.4308 9.91848 13.9032 10.2439 13.5777C10.5694 13.2523 11.097 13.2523 11.4224 13.5777L13.3332 15.4885L13.3332 4.16699C13.3332 3.70675 13.7063 3.33366 14.1665 3.33366Z" fill="#7126B5"/>
</g>
<defs>
<clipPath id="clip0_139_5578">
<rect width="16.6667" height="16.6667" fill="white" transform="translate(1.6665 1.66699)"/>
</clipPath>
</defs>
</svg>
