<svg width="150" height="48" viewBox="0 0 150 48" fill="none" xmlns="http://www.w3.org/2000/svg">
<rect width="150" height="48" rx="12" fill="#4B1979"/>
<path d="M48.5749 30.112C47.8283 30.112 47.1563 29.984 46.5589 29.728C45.9616 29.4613 45.4923 29.088 45.1509 28.608C44.8096 28.128 44.6389 27.568 44.6389 26.928H46.5909C46.6336 27.408 46.8203 27.8027 47.1509 28.112C47.4923 28.4213 47.9669 28.576 48.5749 28.576C49.2043 28.576 49.6949 28.4267 50.0469 28.128C50.3989 27.8187 50.5749 27.424 50.5749 26.944C50.5749 26.5707 50.4629 26.2667 50.2389 26.032C50.0256 25.7973 49.7536 25.616 49.4229 25.488C49.1029 25.36 48.6549 25.2213 48.0789 25.072C47.3536 24.88 46.7616 24.688 46.3029 24.496C45.8549 24.2933 45.4709 23.984 45.1509 23.568C44.8309 23.152 44.6709 22.5973 44.6709 21.904C44.6709 21.264 44.8309 20.704 45.1509 20.224C45.4709 19.744 45.9189 19.376 46.4949 19.12C47.0709 18.864 47.7376 18.736 48.4949 18.736C49.5723 18.736 50.4523 19.008 51.1349 19.552C51.8283 20.0853 52.2123 20.8213 52.2869 21.76H50.2709C50.2389 21.3547 50.0469 21.008 49.6949 20.72C49.3429 20.432 48.8789 20.288 48.3029 20.288C47.7803 20.288 47.3536 20.4213 47.0229 20.688C46.6923 20.9547 46.5269 21.3387 46.5269 21.84C46.5269 22.1813 46.6283 22.464 46.8309 22.688C47.0443 22.9013 47.3109 23.072 47.6309 23.2C47.9509 23.328 48.3883 23.4667 48.9429 23.616C49.6789 23.8187 50.2763 24.0213 50.7349 24.224C51.2043 24.4267 51.5989 24.7413 51.9189 25.168C52.2496 25.584 52.4149 26.144 52.4149 26.848C52.4149 27.4133 52.2603 27.9467 51.9509 28.448C51.6523 28.9493 51.2096 29.3547 50.6229 29.664C50.0469 29.9627 49.3643 30.112 48.5749 30.112ZM55.4952 20.016C55.1645 20.016 54.8872 19.904 54.6632 19.68C54.4392 19.456 54.3272 19.1787 54.3272 18.848C54.3272 18.5173 54.4392 18.24 54.6632 18.016C54.8872 17.792 55.1645 17.68 55.4952 17.68C55.8152 17.68 56.0872 17.792 56.3112 18.016C56.5352 18.24 56.6472 18.5173 56.6472 18.848C56.6472 19.1787 56.5352 19.456 56.3112 19.68C56.0872 19.904 55.8152 20.016 55.4952 20.016ZM56.3912 21.184V30H54.5672V21.184H56.3912ZM69.4579 21.04C70.1513 21.04 70.7699 21.184 71.3139 21.472C71.8686 21.76 72.3006 22.1867 72.6099 22.752C72.9299 23.3173 73.0899 24 73.0899 24.8V30H71.2819V25.072C71.2819 24.2827 71.0846 23.68 70.6899 23.264C70.2953 22.8373 69.7566 22.624 69.0739 22.624C68.3913 22.624 67.8473 22.8373 67.4419 23.264C67.0473 23.68 66.8499 24.2827 66.8499 25.072V30H65.0419V25.072C65.0419 24.2827 64.8446 23.68 64.4499 23.264C64.0553 22.8373 63.5166 22.624 62.8339 22.624C62.1513 22.624 61.6073 22.8373 61.2019 23.264C60.8073 23.68 60.6099 24.2827 60.6099 25.072V30H58.7859V21.184H60.6099V22.192C60.9086 21.8293 61.2873 21.5467 61.7459 21.344C62.2046 21.1413 62.6953 21.04 63.2179 21.04C63.9219 21.04 64.5513 21.1893 65.1059 21.488C65.6606 21.7867 66.0873 22.2187 66.3859 22.784C66.6526 22.2507 67.0686 21.8293 67.6339 21.52C68.1993 21.2 68.8073 21.04 69.4579 21.04ZM77.2349 22.48C77.5443 22.0747 77.9656 21.7333 78.4989 21.456C79.0323 21.1787 79.6349 21.04 80.3069 21.04C81.0749 21.04 81.7736 21.232 82.4029 21.616C83.0429 21.9893 83.5443 22.5173 83.9069 23.2C84.2696 23.8827 84.4509 24.6667 84.4509 25.552C84.4509 26.4373 84.2696 27.232 83.9069 27.936C83.5443 28.6293 83.0429 29.1733 82.4029 29.568C81.7736 29.952 81.0749 30.144 80.3069 30.144C79.6349 30.144 79.0376 30.0107 78.5149 29.744C77.9923 29.4667 77.5656 29.1253 77.2349 28.72V34.192H75.4109V21.184H77.2349V22.48ZM82.5949 25.552C82.5949 24.944 82.4669 24.4213 82.2109 23.984C81.9656 23.536 81.6349 23.2 81.2189 22.976C80.8136 22.7413 80.3763 22.624 79.9069 22.624C79.4483 22.624 79.0109 22.7413 78.5949 22.976C78.1896 23.2107 77.8589 23.552 77.6029 24C77.3576 24.448 77.2349 24.976 77.2349 25.584C77.2349 26.192 77.3576 26.7253 77.6029 27.184C77.8589 27.632 78.1896 27.9733 78.5949 28.208C79.0109 28.4427 79.4483 28.56 79.9069 28.56C80.3763 28.56 80.8136 28.4427 81.2189 28.208C81.6349 27.9627 81.9656 27.6107 82.2109 27.152C82.4669 26.6933 82.5949 26.16 82.5949 25.552ZM85.6467 25.552C85.6467 24.6667 85.828 23.8827 86.1907 23.2C86.564 22.5173 87.0654 21.9893 87.6947 21.616C88.3347 21.232 89.0387 21.04 89.8067 21.04C90.5 21.04 91.1027 21.1787 91.6147 21.456C92.1374 21.7227 92.5534 22.0587 92.8627 22.464V21.184H94.7027V30H92.8627V28.688C92.5534 29.104 92.132 29.4507 91.5987 29.728C91.0654 30.0053 90.4574 30.144 89.7747 30.144C89.0174 30.144 88.324 29.952 87.6947 29.568C87.0654 29.1733 86.564 28.6293 86.1907 27.936C85.828 27.232 85.6467 26.4373 85.6467 25.552ZM92.8627 25.584C92.8627 24.976 92.7347 24.448 92.4787 24C92.2334 23.552 91.908 23.2107 91.5027 22.976C91.0974 22.7413 90.66 22.624 90.1907 22.624C89.7214 22.624 89.284 22.7413 88.8787 22.976C88.4734 23.2 88.1427 23.536 87.8867 23.984C87.6414 24.4213 87.5187 24.944 87.5187 25.552C87.5187 26.16 87.6414 26.6933 87.8867 27.152C88.1427 27.6107 88.4734 27.9627 88.8787 28.208C89.2947 28.4427 89.732 28.56 90.1907 28.56C90.66 28.56 91.0974 28.4427 91.5027 28.208C91.908 27.9733 92.2334 27.632 92.4787 27.184C92.7347 26.7253 92.8627 26.192 92.8627 25.584ZM101.546 21.04C102.24 21.04 102.858 21.184 103.402 21.472C103.957 21.76 104.389 22.1867 104.698 22.752C105.008 23.3173 105.162 24 105.162 24.8V30H103.354V25.072C103.354 24.2827 103.157 23.68 102.762 23.264C102.368 22.8373 101.829 22.624 101.146 22.624C100.464 22.624 99.9198 22.8373 99.5144 23.264C99.1198 23.68 98.9224 24.2827 98.9224 25.072V30H97.0984V21.184H98.9224V22.192C99.2211 21.8293 99.5998 21.5467 100.058 21.344C100.528 21.1413 101.024 21.04 101.546 21.04Z" fill="white"/>
</svg>
