<svg width="126" height="48" viewBox="0 0 126 48" fill="none" xmlns="http://www.w3.org/2000/svg">
<rect width="126" height="48" rx="12" fill="#7126B5"/>
<path d="M33.1667 29.8333C36.8486 29.8333 39.8333 26.8486 39.8333 23.1667C39.8333 19.4848 36.8486 16.5 33.1667 16.5C29.4848 16.5 26.5 19.4848 26.5 23.1667C26.5 26.8486 29.4848 29.8333 33.1667 29.8333Z" stroke="white" stroke-width="2" stroke-linecap="round" stroke-linejoin="round"/>
<path d="M41.5 31.5L37.875 27.875" stroke="white" stroke-width="2" stroke-linecap="round" stroke-linejoin="round"/>
<path d="M56.172 29.098C55.528 29.098 54.9493 28.986 54.436 28.762C53.932 28.5287 53.5353 28.2113 53.246 27.81C52.9567 27.3993 52.8073 26.928 52.798 26.396H54.156C54.2027 26.8533 54.3893 27.2407 54.716 27.558C55.052 27.866 55.5373 28.02 56.172 28.02C56.7787 28.02 57.2547 27.8707 57.6 27.572C57.9547 27.264 58.132 26.872 58.132 26.396C58.132 26.0227 58.0293 25.7193 57.824 25.486C57.6187 25.2527 57.362 25.0753 57.054 24.954C56.746 24.8327 56.3307 24.702 55.808 24.562C55.164 24.394 54.646 24.226 54.254 24.058C53.8713 23.89 53.54 23.6287 53.26 23.274C52.9893 22.91 52.854 22.4247 52.854 21.818C52.854 21.286 52.9893 20.8147 53.26 20.404C53.5307 19.9933 53.9087 19.676 54.394 19.452C54.8887 19.228 55.4533 19.116 56.088 19.116C57.0027 19.116 57.7493 19.3447 58.328 19.802C58.916 20.2593 59.2473 20.866 59.322 21.622H57.922C57.8753 21.2487 57.6793 20.922 57.334 20.642C56.9887 20.3527 56.5313 20.208 55.962 20.208C55.43 20.208 54.996 20.348 54.66 20.628C54.324 20.8987 54.156 21.2813 54.156 21.776C54.156 22.1307 54.254 22.42 54.45 22.644C54.6553 22.868 54.9027 23.0407 55.192 23.162C55.4907 23.274 55.906 23.4047 56.438 23.554C57.082 23.7313 57.6 23.9087 57.992 24.086C58.384 24.254 58.72 24.52 59 24.884C59.28 25.2387 59.42 25.724 59.42 26.34C59.42 26.816 59.294 27.264 59.042 27.684C58.79 28.104 58.4167 28.4447 57.922 28.706C57.4273 28.9673 56.844 29.098 56.172 29.098ZM68.2948 24.87C68.2948 25.1127 68.2808 25.3693 68.2528 25.64H62.1208C62.1675 26.396 62.4241 26.9887 62.8908 27.418C63.3668 27.838 63.9408 28.048 64.6128 28.048C65.1635 28.048 65.6208 27.922 65.9848 27.67C66.3581 27.4087 66.6195 27.0633 66.7688 26.634H68.1408C67.9355 27.3713 67.5248 27.9733 66.9088 28.44C66.2928 28.8973 65.5275 29.126 64.6128 29.126C63.8848 29.126 63.2315 28.9627 62.6528 28.636C62.0835 28.3093 61.6355 27.8473 61.3088 27.25C60.9821 26.6433 60.8188 25.9433 60.8188 25.15C60.8188 24.3567 60.9775 23.6613 61.2948 23.064C61.6121 22.4667 62.0555 22.0093 62.6248 21.692C63.2035 21.3653 63.8661 21.202 64.6128 21.202C65.3408 21.202 65.9848 21.3607 66.5448 21.678C67.1048 21.9953 67.5341 22.434 67.8328 22.994C68.1408 23.5447 68.2948 24.17 68.2948 24.87ZM66.9788 24.604C66.9788 24.1187 66.8715 23.7033 66.6568 23.358C66.4421 23.0033 66.1481 22.7373 65.7748 22.56C65.4108 22.3733 65.0048 22.28 64.5568 22.28C63.9128 22.28 63.3621 22.4853 62.9048 22.896C62.4568 23.3067 62.2001 23.876 62.1348 24.604H66.9788ZM79.2024 21.188C79.7998 21.188 80.3318 21.314 80.7984 21.566C81.2651 21.8087 81.6338 22.1773 81.9044 22.672C82.1751 23.1667 82.3104 23.7687 82.3104 24.478V29H81.0504V24.66C81.0504 23.8947 80.8591 23.3113 80.4764 22.91C80.1031 22.4993 79.5944 22.294 78.9504 22.294C78.2878 22.294 77.7604 22.5087 77.3684 22.938C76.9764 23.358 76.7804 23.9693 76.7804 24.772V29H75.5204V24.66C75.5204 23.8947 75.3291 23.3113 74.9464 22.91C74.5731 22.4993 74.0644 22.294 73.4204 22.294C72.7578 22.294 72.2304 22.5087 71.8384 22.938C71.4464 23.358 71.2504 23.9693 71.2504 24.772V29H69.9764V21.328H71.2504V22.434C71.5024 22.0327 71.8384 21.7247 72.2584 21.51C72.6878 21.2953 73.1591 21.188 73.6724 21.188C74.3164 21.188 74.8858 21.3327 75.3804 21.622C75.8751 21.9113 76.2438 22.336 76.4864 22.896C76.7011 22.3547 77.0558 21.9347 77.5504 21.636C78.0451 21.3373 78.5958 21.188 79.2024 21.188ZM91.2043 21.328V29H89.9303V27.866C89.6876 28.258 89.3469 28.566 88.9083 28.79C88.4789 29.0047 88.0029 29.112 87.4803 29.112C86.8829 29.112 86.3463 28.9907 85.8703 28.748C85.3943 28.496 85.0163 28.1227 84.7363 27.628C84.4656 27.1333 84.3303 26.5313 84.3303 25.822V21.328H85.5903V25.654C85.5903 26.41 85.7816 26.9933 86.1643 27.404C86.5469 27.8053 87.0696 28.006 87.7323 28.006C88.4136 28.006 88.9503 27.796 89.3423 27.376C89.7343 26.956 89.9303 26.3447 89.9303 25.542V21.328H91.2043ZM92.8793 25.136C92.8793 24.352 93.038 23.666 93.3553 23.078C93.6727 22.4807 94.1067 22.0187 94.6573 21.692C95.2173 21.3653 95.838 21.202 96.5193 21.202C97.1913 21.202 97.7747 21.3467 98.2693 21.636C98.764 21.9253 99.1327 22.2893 99.3753 22.728V21.328H100.663V29H99.3753V27.572C99.1233 28.02 98.7453 28.3933 98.2413 28.692C97.7467 28.9813 97.168 29.126 96.5053 29.126C95.824 29.126 95.208 28.958 94.6573 28.622C94.1067 28.286 93.6727 27.8147 93.3553 27.208C93.038 26.6013 92.8793 25.9107 92.8793 25.136ZM99.3753 25.15C99.3753 24.5713 99.2587 24.0673 99.0253 23.638C98.792 23.2087 98.4747 22.882 98.0733 22.658C97.6813 22.4247 97.2473 22.308 96.7713 22.308C96.2953 22.308 95.8613 22.42 95.4693 22.644C95.0773 22.868 94.7647 23.1947 94.5313 23.624C94.298 24.0533 94.1813 24.5573 94.1813 25.136C94.1813 25.724 94.298 26.2373 94.5313 26.676C94.7647 27.1053 95.0773 27.4367 95.4693 27.67C95.8613 27.894 96.2953 28.006 96.7713 28.006C97.2473 28.006 97.6813 27.894 98.0733 27.67C98.4747 27.4367 98.792 27.1053 99.0253 26.676C99.2587 26.2373 99.3753 25.7287 99.3753 25.15Z" fill="white"/>
</svg>
